solid OpenSCAD_Model
  facet normal -0 0 -1
    outer loop
      vertex -3.1785 0 -0.5625
      vertex -2.57146 1.86827 -0.5625
      vertex -2.57146 -1.86827 -0.5625
    endloop
  endfacet
  facet normal 0 -0 -1
    outer loop
      vertex -2.52542 0.919179 -0.5625
      vertex -2.57146 1.86827 -0.5625
      vertex -0.982211 3.02293 -0.5625
    endloop
  endfacet
  facet normal 0 -0 -1
    outer loop
      vertex 0.466679 2.64667 -0.5625
      vertex -0.982211 3.02293 -0.5625
      vertex 0.982211 3.02293 -0.5625
    endloop
  endfacet
  facet normal 0 -0 -1
    outer loop
      vertex 2.05874 1.72749 -0.5625
      vertex 0.982211 3.02293 -0.5625
      vertex 2.57146 1.86827 -0.5625
    endloop
  endfacet
  facet normal -0 -0 -1
    outer loop
      vertex 2.6875 0 -0.5625
      vertex 2.57146 1.86827 -0.5625
      vertex 3.1785 0 -0.5625
    endloop
  endfacet
  facet normal -0 0 -1
    outer loop
      vertex 2.05874 -1.72749 -0.5625
      vertex 3.1785 0 -0.5625
      vertex 2.57146 -1.86827 -0.5625
    endloop
  endfacet
  facet normal -0 0 -1
    outer loop
      vertex 0.466679 -2.64667 -0.5625
      vertex 2.57146 -1.86827 -0.5625
      vertex 0.982211 -3.02293 -0.5625
    endloop
  endfacet
  facet normal 0 0 -1
    outer loop
      vertex -1.34375 -2.32744 -0.5625
      vertex 0.982211 -3.02293 -0.5625
      vertex -0.982211 -3.02293 -0.5625
    endloop
  endfacet
  facet normal 0 -0 -1
    outer loop
      vertex -2.57146 -1.86827 -0.5625
      vertex -2.57146 1.86827 -0.5625
      vertex -2.52542 0.919179 -0.5625
    endloop
  endfacet
  facet normal 0 -0 -1
    outer loop
      vertex -1.34375 2.32744 -0.5625
      vertex -2.52542 0.919179 -0.5625
      vertex -0.982211 3.02293 -0.5625
    endloop
  endfacet
  facet normal 0 0 -1
    outer loop
      vertex -2.57146 -1.86827 -0.5625
      vertex -2.52542 0.919179 -0.5625
      vertex -2.52542 -0.919179 -0.5625
    endloop
  endfacet
  facet normal 0 0 -1
    outer loop
      vertex 0.466679 -2.64667 -0.5625
      vertex 0.982211 -3.02293 -0.5625
      vertex -1.34375 -2.32744 -0.5625
    endloop
  endfacet
  facet normal 0 0 -1
    outer loop
      vertex -2.57146 -1.86827 -0.5625
      vertex -1.34375 -2.32744 -0.5625
      vertex -0.982211 -3.02293 -0.5625
    endloop
  endfacet
  facet normal 0 0 -1
    outer loop
      vertex -1.34375 -2.32744 -0.5625
      vertex -2.57146 -1.86827 -0.5625
      vertex -2.52542 -0.919179 -0.5625
    endloop
  endfacet
  facet normal 0 0 -1
    outer loop
      vertex -1.34375 2.32744 -0.5625
      vertex -0.982211 3.02293 -0.5625
      vertex 0.466679 2.64667 -0.5625
    endloop
  endfacet
  facet normal -0 0 -1
    outer loop
      vertex 0.466679 2.64667 -0.5625
      vertex 0.982211 3.02293 -0.5625
      vertex 2.05874 1.72749 -0.5625
    endloop
  endfacet
  facet normal -0 0 -1
    outer loop
      vertex 2.05874 1.72749 -0.5625
      vertex 2.57146 1.86827 -0.5625
      vertex 2.6875 0 -0.5625
    endloop
  endfacet
  facet normal 0 0 -1
    outer loop
      vertex 2.6875 0 -0.5625
      vertex 3.1785 0 -0.5625
      vertex 2.05874 -1.72749 -0.5625
    endloop
  endfacet
  facet normal 0 0 -1
    outer loop
      vertex 2.05874 -1.72749 -0.5625
      vertex 2.57146 -1.86827 -0.5625
      vertex 0.466679 -2.64667 -0.5625
    endloop
  endfacet
  facet normal -0.951057 0.309017 0
    outer loop
      vertex -3.1785 0 -0.5625
      vertex -3.1785 0 0.5625
      vertex -2.57146 1.86827 -0.5625
    endloop
  endfacet
  facet normal -0.951057 0.309017 0
    outer loop
      vertex -2.57146 1.86827 -0.5625
      vertex -3.1785 0 0.5625
      vertex -2.57146 1.86827 0.5625
    endloop
  endfacet
  facet normal -0.951057 -0.309017 -0
    outer loop
      vertex -3.1785 0 -0.5625
      vertex -2.57146 -1.86827 -0.5625
      vertex -3.1785 0 0.5625
    endloop
  endfacet
  facet normal -0.951057 -0.309017 0
    outer loop
      vertex -3.1785 0 0.5625
      vertex -2.57146 -1.86827 -0.5625
      vertex -2.57146 -1.86827 0.5625
    endloop
  endfacet
  facet normal -0.587785 -0.809017 0
    outer loop
      vertex -2.57146 -1.86827 0.5625
      vertex -2.57146 -1.86827 -0.5625
      vertex -0.982211 -3.02293 -0.5625
    endloop
  endfacet
  facet normal -0.587785 -0.809017 0
    outer loop
      vertex -0.982211 -3.02293 0.5625
      vertex -2.57146 -1.86827 0.5625
      vertex -0.982211 -3.02293 -0.5625
    endloop
  endfacet
  facet normal 0 -1 0
    outer loop
      vertex -0.982211 -3.02293 0.5625
      vertex -0.982211 -3.02293 -0.5625
      vertex 0.982211 -3.02293 -0.5625
    endloop
  endfacet
  facet normal 0 -1 0
    outer loop
      vertex 0.982211 -3.02293 0.5625
      vertex -0.982211 -3.02293 0.5625
      vertex 0.982211 -3.02293 -0.5625
    endloop
  endfacet
  facet normal 0.587785 -0.809017 0
    outer loop
      vertex 0.982211 -3.02293 0.5625
      vertex 0.982211 -3.02293 -0.5625
      vertex 2.57146 -1.86827 -0.5625
    endloop
  endfacet
  facet normal 0.587785 -0.809017 0
    outer loop
      vertex 2.57146 -1.86827 0.5625
      vertex 0.982211 -3.02293 0.5625
      vertex 2.57146 -1.86827 -0.5625
    endloop
  endfacet
  facet normal 0.951057 -0.309017 0
    outer loop
      vertex 2.57146 -1.86827 0.5625
      vertex 2.57146 -1.86827 -0.5625
      vertex 3.1785 0 -0.5625
    endloop
  endfacet
  facet normal 0.951057 -0.309017 0
    outer loop
      vertex 3.1785 0 0.5625
      vertex 2.57146 -1.86827 0.5625
      vertex 3.1785 0 -0.5625
    endloop
  endfacet
  facet normal 0.951057 0.309017 0
    outer loop
      vertex 3.1785 0 -0.5625
      vertex 2.57146 1.86827 -0.5625
      vertex 2.57146 1.86827 0.5625
    endloop
  endfacet
  facet normal 0.951057 0.309017 -0
    outer loop
      vertex 3.1785 0 0.5625
      vertex 3.1785 0 -0.5625
      vertex 2.57146 1.86827 0.5625
    endloop
  endfacet
  facet normal 0.587785 0.809017 0
    outer loop
      vertex 0.982211 3.02293 -0.5625
      vertex 0.982211 3.02293 0.5625
      vertex 2.57146 1.86827 -0.5625
    endloop
  endfacet
  facet normal 0.587785 0.809017 0
    outer loop
      vertex 2.57146 1.86827 -0.5625
      vertex 0.982211 3.02293 0.5625
      vertex 2.57146 1.86827 0.5625
    endloop
  endfacet
  facet normal 0 1 0
    outer loop
      vertex -0.982211 3.02293 -0.5625
      vertex -0.982211 3.02293 0.5625
      vertex 0.982211 3.02293 -0.5625
    endloop
  endfacet
  facet normal 0 1 0
    outer loop
      vertex 0.982211 3.02293 -0.5625
      vertex -0.982211 3.02293 0.5625
      vertex 0.982211 3.02293 0.5625
    endloop
  endfacet
  facet normal -0.587785 0.809017 0
    outer loop
      vertex -2.57146 1.86827 -0.5625
      vertex -2.57146 1.86827 0.5625
      vertex -0.982211 3.02293 -0.5625
    endloop
  endfacet
  facet normal -0.587785 0.809017 0
    outer loop
      vertex -0.982211 3.02293 -0.5625
      vertex -2.57146 1.86827 0.5625
      vertex -0.982211 3.02293 0.5625
    endloop
  endfacet
  facet normal 1 0 0
    outer loop
      vertex -2.52542 0.919179 -0.5625
      vertex -2.52542 0.919179 0.5625
      vertex -2.52542 -0.919179 0.5625
    endloop
  endfacet
  facet normal 1 0 0
    outer loop
      vertex -2.52542 -0.919179 -0.5625
      vertex -2.52542 0.919179 -0.5625
      vertex -2.52542 -0.919179 0.5625
    endloop
  endfacet
  facet normal 0.766044 -0.642788 0
    outer loop
      vertex -1.34375 2.32744 -0.5625
      vertex -1.34375 2.32744 0.5625
      vertex -2.52542 0.919179 0.5625
    endloop
  endfacet
  facet normal 0.766044 -0.642788 0
    outer loop
      vertex -2.52542 0.919179 -0.5625
      vertex -1.34375 2.32744 -0.5625
      vertex -2.52542 0.919179 0.5625
    endloop
  endfacet
  facet normal 0.173648 -0.984808 0
    outer loop
      vertex 0.466679 2.64667 -0.5625
      vertex 0.466679 2.64667 0.5625
      vertex -1.34375 2.32744 0.5625
    endloop
  endfacet
  facet normal 0.173648 -0.984808 0
    outer loop
      vertex -1.34375 2.32744 -0.5625
      vertex 0.466679 2.64667 -0.5625
      vertex -1.34375 2.32744 0.5625
    endloop
  endfacet
  facet normal -0.5 -0.866025 -0
    outer loop
      vertex 2.05874 1.72749 -0.5625
      vertex 2.05874 1.72749 0.5625
      vertex 0.466679 2.64667 0.5625
    endloop
  endfacet
  facet normal -0.5 -0.866025 -0
    outer loop
      vertex 0.466679 2.64667 -0.5625
      vertex 2.05874 1.72749 -0.5625
      vertex 0.466679 2.64667 0.5625
    endloop
  endfacet
  facet normal -0.939693 -0.34202 0
    outer loop
      vertex 2.6875 0 0.5625
      vertex 2.05874 1.72749 0.5625
      vertex 2.6875 0 -0.5625
    endloop
  endfacet
  facet normal -0.939693 -0.34202 0
    outer loop
      vertex 2.6875 0 -0.5625
      vertex 2.05874 1.72749 0.5625
      vertex 2.05874 1.72749 -0.5625
    endloop
  endfacet
  facet normal -0.939693 0.34202 0
    outer loop
      vertex 2.6875 0 0.5625
      vertex 2.6875 0 -0.5625
      vertex 2.05874 -1.72749 0.5625
    endloop
  endfacet
  facet normal -0.939693 0.34202 0
    outer loop
      vertex 2.05874 -1.72749 0.5625
      vertex 2.6875 0 -0.5625
      vertex 2.05874 -1.72749 -0.5625
    endloop
  endfacet
  facet normal -0.5 0.866025 0
    outer loop
      vertex 2.05874 -1.72749 0.5625
      vertex 2.05874 -1.72749 -0.5625
      vertex 0.466679 -2.64667 0.5625
    endloop
  endfacet
  facet normal -0.5 0.866025 0
    outer loop
      vertex 0.466679 -2.64667 0.5625
      vertex 2.05874 -1.72749 -0.5625
      vertex 0.466679 -2.64667 -0.5625
    endloop
  endfacet
  facet normal 0.173648 0.984808 -0
    outer loop
      vertex 0.466679 -2.64667 0.5625
      vertex 0.466679 -2.64667 -0.5625
      vertex -1.34375 -2.32744 0.5625
    endloop
  endfacet
  facet normal 0.173648 0.984808 -0
    outer loop
      vertex -1.34375 -2.32744 0.5625
      vertex 0.466679 -2.64667 -0.5625
      vertex -1.34375 -2.32744 -0.5625
    endloop
  endfacet
  facet normal 0.766044 0.642788 0
    outer loop
      vertex -2.52542 -0.919179 0.5625
      vertex -1.34375 -2.32744 0.5625
      vertex -1.34375 -2.32744 -0.5625
    endloop
  endfacet
  facet normal 0.766044 0.642788 0
    outer loop
      vertex -2.52542 -0.919179 -0.5625
      vertex -2.52542 -0.919179 0.5625
      vertex -1.34375 -2.32744 -0.5625
    endloop
  endfacet
  facet normal 0 0 1
    outer loop
      vertex -2.57146 1.86827 0.5625
      vertex -3.1785 0 0.5625
      vertex -2.57146 -1.86827 0.5625
    endloop
  endfacet
  facet normal -0 0 1
    outer loop
      vertex -2.52542 -0.919179 0.5625
      vertex -2.57146 1.86827 0.5625
      vertex -2.57146 -1.86827 0.5625
    endloop
  endfacet
  facet normal -0 0 1
    outer loop
      vertex 0.466679 -2.64667 0.5625
      vertex -1.34375 -2.32744 0.5625
      vertex -0.982211 -3.02293 0.5625
    endloop
  endfacet
  facet normal 0 0 1
    outer loop
      vertex -0.982211 -3.02293 0.5625
      vertex -2.52542 -0.919179 0.5625
      vertex -2.57146 -1.86827 0.5625
    endloop
  endfacet
  facet normal -0 0 1
    outer loop
      vertex -2.52542 0.919179 0.5625
      vertex -2.57146 1.86827 0.5625
      vertex -2.52542 -0.919179 0.5625
    endloop
  endfacet
  facet normal 0 -0 1
    outer loop
      vertex -0.982211 3.02293 0.5625
      vertex -1.34375 2.32744 0.5625
      vertex 0.982211 3.02293 0.5625
    endloop
  endfacet
  facet normal 0 0 1
    outer loop
      vertex -0.982211 3.02293 0.5625
      vertex -2.57146 1.86827 0.5625
      vertex -1.34375 2.32744 0.5625
    endloop
  endfacet
  facet normal 0 -0 1
    outer loop
      vertex 0.982211 3.02293 0.5625
      vertex 0.466679 2.64667 0.5625
      vertex 2.57146 1.86827 0.5625
    endloop
  endfacet
  facet normal 0 0 1
    outer loop
      vertex 0.466679 2.64667 0.5625
      vertex 2.05874 1.72749 0.5625
      vertex 2.57146 1.86827 0.5625
    endloop
  endfacet
  facet normal 0 -0 1
    outer loop
      vertex 2.57146 1.86827 0.5625
      vertex 2.05874 1.72749 0.5625
      vertex 3.1785 0 0.5625
    endloop
  endfacet
  facet normal 0 0 1
    outer loop
      vertex 3.1785 0 0.5625
      vertex 2.6875 0 0.5625
      vertex 2.57146 -1.86827 0.5625
    endloop
  endfacet
  facet normal -0 0 1
    outer loop
      vertex 2.57146 -1.86827 0.5625
      vertex 2.05874 -1.72749 0.5625
      vertex 0.982211 -3.02293 0.5625
    endloop
  endfacet
  facet normal -0 0 1
    outer loop
      vertex 0.982211 -3.02293 0.5625
      vertex 0.466679 -2.64667 0.5625
      vertex -0.982211 -3.02293 0.5625
    endloop
  endfacet
  facet normal 0 0 1
    outer loop
      vertex -0.982211 -3.02293 0.5625
      vertex -1.34375 -2.32744 0.5625
      vertex -2.52542 -0.919179 0.5625
    endloop
  endfacet
  facet normal 0 0 1
    outer loop
      vertex -1.34375 2.32744 0.5625
      vertex 0.466679 2.64667 0.5625
      vertex 0.982211 3.02293 0.5625
    endloop
  endfacet
  facet normal 0 0 1
    outer loop
      vertex 2.05874 1.72749 0.5625
      vertex 2.6875 0 0.5625
      vertex 3.1785 0 0.5625
    endloop
  endfacet
  facet normal 0 0 1
    outer loop
      vertex 2.6875 0 0.5625
      vertex 2.05874 -1.72749 0.5625
      vertex 2.57146 -1.86827 0.5625
    endloop
  endfacet
  facet normal 0 0 1
    outer loop
      vertex 2.05874 -1.72749 0.5625
      vertex 0.466679 -2.64667 0.5625
      vertex 0.982211 -3.02293 0.5625
    endloop
  endfacet
  facet normal 0 0 1
    outer loop
      vertex -2.52542 0.919179 0.5625
      vertex -1.34375 2.32744 0.5625
      vertex -2.57146 1.86827 0.5625
    endloop
  endfacet
endsolid OpenSCAD_Model
